Coordinates
version=1
nRows=17
nColumns=40
inDegrees=yes

Units are S.I. units (second, meters, Newtons, ...)
If the header above contains a line with 'inDegrees', this indicates whether rotational values are in degrees (yes) or radians (no).

endheader
time	pelvis_tilt	pelvis_list	pelvis_rotation	pelvis_tx	pelvis_ty	pelvis_tz	hip_flexion_r	hip_adduction_r	hip_rotation_r	knee_angle_r	knee_angle_r_beta	ankle_angle_r	subtalar_angle_r	mtp_angle_r	hip_flexion_l	hip_adduction_l	hip_rotation_l	knee_angle_l	knee_angle_l_beta	ankle_angle_l	subtalar_angle_l	mtp_angle_l	lumbar_extension	lumbar_bending	lumbar_rotation	arm_flex_r	arm_add_r	arm_rot_r	elbow_flex_r	pro_sup_r	wrist_flex_r	wrist_dev_r	arm_flex_l	arm_add_l	arm_rot_l	elbow_flex_l	pro_sup_l	wrist_flex_l	wrist_dev_l
      7.41500000	    -35.97373571	     -0.45935187	     -4.45330024	     -0.40385141	      0.67565462	     -0.91330610	     91.68215526	    -27.32123377	     -5.43448185	     89.44678978	      1.56114099	     27.98760625	      0.00000000	      0.00000000	     94.89000415	    -31.54006299	      0.33123296	     91.24610882	      1.59254503	     30.84403234	      0.00000000	      0.00000000	    -19.05219752	      1.42153549	      8.18675338	    -33.19445655	    -54.30809583	     36.36467393	     98.89220067	     87.86821486	      0.00000000	      0.00000000	    -11.17308138	    -58.24465335	     54.11121654	     99.13858143	     87.82884485	      0.00000000	      0.00000000
      7.42000000	    -36.30987060	     -0.28762240	     -4.44564126	     -0.40553824	      0.67105698	     -0.91355377	     92.71685113	    -27.61254369	     -5.19802711	     90.07651215	      1.57213172	     27.99150900	      0.00000000	      0.00000000	     95.76327165	    -31.73732847	      0.23691178	     91.86555540	      1.60335641	     30.85126419	      0.00000000	      0.00000000	    -19.25102535	      1.25956189	      8.05421927	    -32.60498977	    -54.27851722	     36.95482498	     98.70041517	     87.86418694	      0.00000000	      0.00000000	    -10.87692747	    -58.18270856	     54.46405221	     98.94965336	     87.82915651	      0.00000000	      0.00000000
      7.42500000	    -36.52088837	     -0.28035170	     -4.42313280	     -0.40687838	      0.66677261	     -0.91369853	     93.47047546	    -27.90173284	     -5.16313798	     90.72724560	      1.58348916	     28.12160740	      0.00000000	      0.00000000	     96.58715195	    -31.93594390	      0.34671763	     92.51076357	      1.61461742	     30.98991298	      0.00000000	      0.00000000	    -19.62446454	      1.27133827	      7.98223017	    -32.38853435	    -54.21304433	     37.09306775	     98.60687044	     87.86535757	      0.00000000	      0.00000000	    -10.77151422	    -58.10695781	     54.60951304	     98.80283206	     87.83825909	      0.00000000	      0.00000000
      7.43000000	    -36.76272828	     -0.23858425	     -4.44556492	     -0.40796956	      0.66265759	     -0.91390383	     94.22125442	    -28.17374539	     -5.13661805	     91.28596474	      1.59324065	     28.21510604	      0.00000000	      0.00000000	     97.34557465	    -32.17524611	      0.38212443	     93.09905622	      1.62488506	     31.10998328	      0.00000000	      0.00000000	    -19.91943254	      1.25351219	      7.93396269	    -32.08629674	    -54.17175034	     37.15444780	     98.53829033	     87.86365294	      0.00000000	      0.00000000	    -10.63267139	    -57.93921399	     54.75496304	     98.64707872	     87.84281884	      0.00000000	      0.00000000
      7.43500000	    -37.42852925	     -0.02370619	     -4.41830567	     -0.40991906	      0.65822784	     -0.91424184	     95.58992668	    -28.37132600	     -4.76407955	     91.75332936	      1.60139770	     27.89827528	      0.00000000	      0.00000000	     98.50877653	    -32.21728936	      0.36844101	     93.56834349	      1.63307567	     30.84096312	      0.00000000	      0.00000000	    -19.61888804	      1.10289155	      7.76341427	    -31.12646567	    -54.33311806	     38.47057704	     98.21958407	     87.86390498	      0.00000000	      0.00000000	     -9.93312131	    -58.03169694	     55.93507910	     98.31625795	     87.86716481	      0.00000000	      0.00000000
      7.44000000	    -37.44183412	     -0.08101149	     -4.35865055	     -0.41074166	      0.65471128	     -0.91434996	     96.03116656	    -28.66293655	     -4.76455232	     92.33775427	      1.61159784	     28.04446463	      0.00000000	      0.00000000	     99.05513846	    -32.36936352	      0.51683631	     94.11997527	      1.64270346	     30.98040322	      0.00000000	      0.00000000	    -20.15574339	      1.18689154	      7.68049429	    -30.94071905	    -54.35476043	     38.57570095	     98.17657247	     87.86274817	      0.00000000	      0.00000000	     -9.80668339	    -58.07419743	     56.09390112	     98.26781767	     87.87198100	      0.00000000	      0.00000000
      7.44500000	    -37.51739859	     -0.10915329	     -4.31376921	     -0.41152990	      0.65125209	     -0.91459451	     96.50714627	    -28.96875505	     -4.77659527	     92.84787163	      1.62050106	     28.15085663	      0.00000000	      0.00000000	     99.63257802	    -32.53278296	      0.60251852	     94.65795493	      1.65209298	     31.08051746	      0.00000000	      0.00000000	    -20.58717903	      1.26009662	      7.61592825	    -30.71530471	    -54.40552924	     38.62907255	     98.16048238	     87.86217144	      0.00000000	      0.00000000	     -9.66021680	    -58.08321610	     56.22949647	     98.24252193	     87.87526111	      0.00000000	      0.00000000
      7.45000000	    -37.61092828	     -0.13569342	     -4.25936219	     -0.41247876	      0.64788051	     -0.91480999	     97.03307217	    -29.24752039	     -4.74513121	     93.36004766	      1.62944022	     28.22393555	      0.00000000	      0.00000000	    100.24177484	    -32.65196038	      0.72552013	     95.17003436	      1.66103045	     31.13875837	      0.00000000	      0.00000000	    -20.98951188	      1.33901875	      7.53208168	    -30.55100087	    -54.55988922	     38.74804256	     98.20722487	     87.86719170	      0.00000000	      0.00000000	     -9.55965563	    -58.19909233	     56.44989645	     98.29872498	     87.88399975	      0.00000000	      0.00000000
      7.45500000	    -37.83515250	     -0.13696127	     -4.20061886	     -0.41373809	      0.64433839	     -0.91498789	     97.73946554	    -29.51826390	     -4.69347896	     93.81545593	      1.63738860	     28.03077491	      0.00000000	      0.00000000	    101.01992888	    -32.70047566	      0.93998939	     95.63150856	      1.66908469	     30.82393911	      0.00000000	      0.00000000	    -21.12326330	      1.40567585	      7.46112267	    -29.90664004	    -54.97154536	     39.81630770	     98.38861120	     87.86683542	      0.00000000	      0.00000000	     -8.88370427	    -58.55165303	     57.60875005	     98.55447228	     87.87021321	      0.00000000	      0.00000000
      7.46000000	    -37.83660499	     -0.16695915	     -4.14205245	     -0.41432760	      0.64109764	     -0.91521485	     98.15130412	    -29.82491502	     -4.66446842	     94.35100938	      1.64673577	     28.14674091	      0.00000000	      0.00000000	    101.49023146	    -32.87201660	      0.99947721	     96.15087725	      1.67814939	     30.95899838	      0.00000000	      0.00000000	    -21.54934897	      1.49841558	      7.42955306	    -29.83000709	    -55.13200276	     39.87613315	     98.43029294	     87.86366463	      0.00000000	      0.00000000	     -8.79795142	    -58.67952722	     57.72541017	     98.61758239	     87.86806150	      0.00000000	      0.00000000
      7.46500000	    -37.85071951	     -0.12617820	     -4.13581456	     -0.41491721	      0.63797870	     -0.91545011	     98.60661288	    -30.09366981	     -4.61148476	     94.82251219	      1.65496504	     28.23050420	      0.00000000	      0.00000000	    101.92398725	    -33.02274184	      1.05689192	     96.66273812	      1.68708304	     31.06012929	      0.00000000	      0.00000000	    -21.93055579	      1.51343987	      7.42111746	    -29.79059894	    -55.33546592	     39.96534543	     98.56842875	     87.86609879	      0.00000000	      0.00000000	     -8.74132186	    -58.84364205	     57.86474178	     98.76610688	     87.87169085	      0.00000000	      0.00000000
      7.47000000	    -37.85160120	     -0.09683938	     -3.99881359	     -0.41548665	      0.63472481	     -0.91584195	     99.08073827	    -30.45861649	     -4.43391315	     95.35101632	      1.66418918	     28.24257248	      0.00000000	      0.00000000	    102.34940021	    -33.03980381	      1.11032013	     97.15530145	      1.69567990	     31.04789284	      0.00000000	      0.00000000	    -22.25151995	      1.57119206	      7.32462356	    -29.75039184	    -55.69703259	     40.27596121	     98.98605819	     87.86137903	      0.00000000	      0.00000000	     -8.58466603	    -59.19528797	     58.26241957	     99.26640505	     87.87125228	      0.00000000	      0.00000000
      7.47500000	    -37.82914402	     -0.16717854	     -3.84973524	     -0.41585620	      0.63167644	     -0.91624589	     99.40299979	    -30.85961127	     -4.44306459	     95.85680968	      1.67301694	     28.31041701	      0.00000000	      0.00000000	    102.77370766	    -33.11698375	      1.14412777	     97.64780230	      1.70427566	     31.14727267	      0.00000000	      0.00000000	    -22.59371624	      1.75118295	      7.27457380	    -29.75630993	    -55.87994518	     40.39032760	     99.05668494	     87.85788429	      0.00000000	      0.00000000	     -8.50760032	    -59.32810602	     58.37321058	     99.36155477	     87.86882869	      0.00000000	      0.00000000
      7.48000000	    -38.52815074	      0.20513936	     -5.15595209	     -0.41930422	      0.62749774	     -0.91282983	    100.80821164	    -29.12474928	     -4.01535708	     96.00202467	      1.67555142	     28.19285944	      0.00000000	      0.00000000	    104.16098926	    -34.68391536	      1.47109144	     98.04341891	      1.71118047	     31.04292867	      0.00000000	      0.00000000	    -22.14953793	      0.82887702	      8.43986600	    -29.79550015	    -56.11682558	     40.69415401	     99.67371114	     87.84345257	      0.00000000	      0.00000000	     -8.54825578	    -60.12555684	     58.40545353	    100.17327121	     87.85314467	      0.00000000	      0.00000000
      7.48500000	    -38.53035702	      0.09675639	     -3.91996573	     -0.41969749	      0.62452179	     -0.91610319	    101.29600758	    -30.83685651	     -3.76987469	     96.61347957	      1.68622332	     28.25514075	      0.00000000	      0.00000000	    104.39770407	    -33.27035625	      1.36014567	     98.38143977	      1.71708005	     30.98329372	      0.00000000	      0.00000000	    -22.40636295	      1.56336144	      7.38723658	    -29.99535270	    -56.50046933	     40.71051927	     99.82328645	     87.84779776	      0.00000000	      0.00000000	     -8.42060888	    -60.22124384	     58.60150799	    100.46159202	     87.83452351	      0.00000000	      0.00000000
      7.49000000	    -38.58765757	      0.23125799	     -4.63976313	     -0.42085541	      0.62166872	     -0.91400846	    101.79442786	    -30.04721745	     -3.69208699	     97.01964631	      1.69331227	     28.29262746	      0.00000000	      0.00000000	    104.95701676	    -34.27450901	      1.61138584	     98.83338004	      1.72496789	     31.07895833	      0.00000000	      0.00000000	    -22.58902872	      1.10972518	      8.04591575	    -29.93991424	    -56.67995920	     40.81581349	    100.10427310	     87.85982793	      0.00000000	      0.00000000	     -8.40049877	    -60.63624259	     58.58168106	    100.69614810	     87.82040862	      0.00000000	      0.00000000
      7.49500000	    -37.47455498	      0.21822194	     -3.55109873	     -0.41816164	      0.62144948	     -0.91725413	    100.89801532	    -31.77486437	     -3.44012139	     97.53012851	      1.70222186	     28.42339497	      0.00000000	      0.00000000	    103.61579153	    -33.28607901	      1.01658955	     99.24893689	      1.73222073	     31.10909667	      0.00000000	      0.00000000	    -24.07523800	      1.64417561	      7.13727177	    -29.86702034	    -56.87157530	     40.87182566	     99.97973065	     87.85200582	      0.00000000	      0.00000000	     -8.02847999	    -60.32472515	     58.73161317	    100.53875613	     87.81005185	      0.00000000	      0.00000000
